<?xml version="1.0" standalone="no"?>
<!DOCTYPE svg PUBLIC "-//W3C//DTD SVG 20010904//EN"
 "http://www.w3.org/TR/2001/REC-SVG-20010904/DTD/svg10.dtd">
<svg version="1.0" xmlns="http://www.w3.org/2000/svg"
 width="500.000000pt" height="500.000000pt" viewBox="0 0 500.000000 500.000000"
 preserveAspectRatio="xMidYMid meet">

<g transform="translate(0.000000,500.000000) scale(0.100000,-0.100000)"
fill="#000000" stroke="none">
<path d="M2280 3875 c-348 -55 -669 -249 -883 -534 -183 -243 -277 -522 -277
-826 0 -397 167 -765 464 -1028 239 -210 513 -322 845 -343 159 -11 393 26
549 86 432 166 753 538 857 992 24 106 35 280 24 407 -27 337 -165 629 -410
870 -305 301 -746 442 -1169 376z m-192 -465 c95 -16 166 -46 221 -96 163
-147 164 -441 1 -587 -62 -56 -123 -85 -220 -105 -63 -13 -89 -13 -170 -2 -52
6 -122 21 -155 31 -33 10 -62 19 -64 19 -2 0 -2 -98 1 -217 7 -260 15 -294 82
-323 l41 -19 -173 0 c-113 -1 -171 2 -167 9 3 6 14 10 24 10 28 0 59 42 71 96
7 33 10 220 8 555 -3 463 -4 507 -21 540 -12 25 -30 42 -55 52 -36 15 -35 15
78 17 63 1 171 7 240 15 162 16 183 17 258 5z m1162 -11 c30 -6 79 -17 108
-25 l52 -15 0 -85 c0 -46 -3 -84 -8 -84 -4 0 -16 16 -27 36 -28 53 -108 120
-173 145 -83 33 -242 33 -327 0 -75 -29 -165 -116 -183 -177 -28 -95 -10 -166
56 -226 55 -50 108 -76 292 -141 205 -72 279 -108 344 -168 97 -89 128 -222
75 -334 -33 -70 -112 -146 -189 -182 -201 -95 -436 -69 -637 69 l-43 29 0 84
c0 47 3 85 8 85 4 0 28 -28 52 -61 82 -113 208 -201 329 -229 128 -30 269 7
351 93 81 84 101 180 55 272 -44 90 -132 146 -358 227 -278 99 -384 169 -426
281 -16 41 -13 136 4 188 40 116 169 202 340 229 66 10 218 4 305 -11z m-1543
-1649 c4 -11 9 -6 18 15 l13 30 15 -34 15 -34 7 32 c4 18 9 30 12 28 2 -3 -1
-25 -8 -48 l-12 -44 -10 33 c-12 38 -24 41 -33 7 -6 -23 -24 -36 -24 -16 0 5
-2 24 -5 42 -5 31 -3 29 12 -11z m176 33 c-33 -6 -29 -33 5 -34 l27 -2 -27 -4
c-16 -2 -28 -10 -28 -18 0 -8 12 -16 28 -18 25 -4 25 -4 -5 -6 -33 -1 -33 0
-33 44 0 43 1 45 28 44 23 -2 24 -2 5 -6z m152 -38 c0 -36 -3 -40 -27 -43 -27
-3 -28 -2 -28 43 0 45 1 46 28 43 24 -3 27 -7 27 -43z m225 26 c5 -11 10 -24
10 -30 0 -18 -31 -41 -56 -41 -22 0 -24 4 -24 45 0 43 1 45 30 45 19 0 33 -7
40 -19z m113 12 c-13 -2 -23 -11 -23 -19 0 -8 10 -15 23 -15 l22 -2 -22 -4
c-13 -2 -23 -11 -23 -18 0 -7 10 -16 23 -18 19 -4 18 -4 -5 -6 -27 -1 -28 1
-28 44 0 43 1 45 28 44 23 -2 24 -2 5 -6z m108 -23 c11 -30 29 -41 29 -17 0 7
7 22 15 33 14 18 14 17 5 -9 -5 -16 -15 -38 -21 -49 -10 -19 -12 -18 -30 22
-21 46 -22 50 -13 50 3 0 10 -13 15 -30z m152 23 c-33 -6 -29 -33 5 -34 l27
-2 -27 -4 c-16 -2 -28 -10 -28 -18 0 -8 12 -16 28 -18 25 -4 25 -4 -5 -6 -33
-1 -33 0 -33 44 0 43 1 45 28 44 23 -2 24 -2 5 -6z m125 -76 c12 -3 11 -5 -5
-6 -21 -1 -23 3 -21 47 l1 47 4 -42 c3 -29 9 -43 21 -46z m160 71 c27 -27 1
-78 -38 -78 -29 0 -54 43 -40 69 12 24 58 29 78 9z m137 -13 c0 -13 -8 -21
-22 -23 -13 -2 -23 -12 -26 -25 -2 -12 -5 0 -6 26 -1 47 0 48 27 45 19 -2 27
-9 27 -23z m98 18 c-33 -6 -29 -33 5 -34 l27 -2 -27 -4 c-16 -2 -28 -10 -28
-18 0 -8 12 -16 28 -18 25 -4 25 -4 -5 -6 -33 -1 -33 0 -33 44 0 43 1 45 28
44 23 -2 24 -2 5 -6z m153 -8 c4 -8 1 -22 -6 -30 -10 -12 -10 -18 0 -30 7 -8
8 -15 4 -15 -5 0 -16 10 -23 23 l-15 22 -7 -25 c-5 -19 -7 -14 -8 23 -1 44 1
47 24 47 14 0 28 -7 31 -15z"/>
<path d="M1850 3394 c-14 -2 -53 -11 -87 -20 l-63 -16 0 -334 c0 -307 1 -334
18 -342 76 -40 303 -50 387 -18 70 27 146 103 181 179 22 49 29 81 32 153 9
190 -66 314 -226 374 -55 21 -187 34 -242 24z"/>
<path d="M1990 1770 c0 -5 7 -10 15 -10 8 0 15 5 15 10 0 6 -7 10 -15 10 -8 0
-15 -4 -15 -10z"/>
<path d="M1996 1743 c-13 -14 -5 -33 14 -33 11 0 20 6 20 14 0 15 -24 28 -34
19z"/>
<path d="M2210 1746 c0 -39 18 -48 41 -20 15 18 2 47 -25 52 -12 3 -16 -4 -16
-32z"/>
<path d="M2851 1762 c-20 -38 31 -71 59 -37 6 8 9 23 5 35 -8 25 -51 27 -64 2z"/>
<path d="M3010 1765 c0 -8 9 -15 20 -15 11 0 20 7 20 15 0 8 -9 15 -20 15 -11
0 -20 -7 -20 -15z"/>
<path d="M3260 1765 c0 -8 9 -15 20 -15 11 0 20 7 20 15 0 8 -9 15 -20 15 -11
0 -20 -7 -20 -15z"/>
</g>
</svg>
